<svg xmlns="http://www.w3.org/2000/svg" width="142" height="30.205" viewBox="0 0 142 30.205">
  <g id="Logo" transform="translate(-0.601 -0.548)">
    <path id="Path_2966" data-name="Path 2966" d="M4.852,129.791c9.156,0,18.342.047,27.484.047,2.944-.03,5.889-.033,8.833-.037h3.638a3.369,3.369,0,0,1,.623.03v.02a2.627,2.627,0,0,0-.3.432c-.136.261-.395.5-.583.817-.116.139-.265.257-.382.419-.435.6-.907,1.2-1.347,1.769a2,2,0,0,1-.281.342c-.173.235-.35.5-.523.693-.033.045-.088.085-.121.131-.124.171-.233.388-.452.462a2.216,2.216,0,0,1-.593.02H16.629a3.618,3.618,0,0,0-.764.04,2.157,2.157,0,0,0-.08.924V146.07l.01,2.311c0,.232.12.761-.05.894-.1.132-.449.091-.673.091h-.221a1.538,1.538,0,0,0-.29-.01h-.644c-.568,0-1.174-.01-1.759-.01l-1.477.01a2.629,2.629,0,0,1-.874-.04c-.02-.031-.055-.055-.07-.09a3.949,3.949,0,0,1-.02-.782V135.75c0-.2-.006-.368.01-.613a.654.654,0,0,0,0-.221c-.026-.058-.268-.033-.352-.03l-4.683.05a2.845,2.845,0,0,0-.3-.372c-.257-.346-.517-.662-.8-1-.681-.919-1.45-1.764-2.13-2.683-.2-.274-.438-.527-.643-.8-.064-.086-.151-.161-.211-.251a1.548,1.548,0,0,1,.412.017H4.822C4.86,129.8,4.844,129.8,4.852,129.791Z" transform="translate(0 -118.619)" fill="#fff" fill-rule="evenodd"/>
    <path id="Path_2967" data-name="Path 2967" d="M265.331,217.883H254.89a2.022,2.022,0,0,1-.372-.01h-1.558l-.784-.01a2.543,2.543,0,0,1-.472-.01h-.2a3.479,3.479,0,0,1-.372-.03h-.171c-.162-.036-.364-.024-.523-.06h-.121c-.2-.062-.567-.051-.834-.121a2.5,2.5,0,0,1-.623-.121c-.423-.122-.862-.194-1.266-.342a9.531,9.531,0,0,1-1.4-.543,13.72,13.72,0,0,1-2.1-1.246,7.55,7.55,0,0,0-.613-.5c-.081-.061-.14-.16-.221-.221a2.743,2.743,0,0,1-.382-.382c-.155-.175-.319-.332-.462-.523-.039-.052-.093-.1-.141-.151-.153-.28-.419-.559-.6-.854a10.529,10.529,0,0,1-1-2.2c-.15-.439-.188-.92-.3-1.4-.057-.237-.017-.5-.07-.744v-.141a3.967,3.967,0,0,1,.01-.784V207.3a1,1,0,0,1,.092-.382,1.068,1.068,0,0,1,.064-.533,10.083,10.083,0,0,1,.246-1.125c.064-.186.111-.357.181-.522.088-.078.046-.186.123-.231.09-.071.382-.03.54-.03h6.775v.02h-.022c-.14.148-.347.284-.5.422a6.852,6.852,0,0,0-1.146,1.618,8.8,8.8,0,0,0-.241.961c-.03.092-.013.193-.04.315a2.929,2.929,0,0,0,0,1.025c.056.231.085.466.161.683a5.173,5.173,0,0,0,.342.774,4.754,4.754,0,0,0,2.643,2.12c.3.113.623.172.945.261a1.05,1.05,0,0,1,.442.129c.521.035,1,.064,1.538.064h.6a1.628,1.628,0,0,0,.322-.063h3.819c.955,0,1.909.029,2.864.063h.874c.146,0,.326-.072.442-.032a.857.857,0,0,1,.4.372c.166.225.37.436.574.663a3.873,3.873,0,0,0,.391.543c.55.763,1.162,1.473,1.718,2.231.2.284.431.533.674.814C265.179,217.63,265.319,217.681,265.331,217.883Z" transform="translate(-219.981 -187.156)" fill="#bee9ec" fill-rule="evenodd"/>
    <path id="Path_2968" data-name="Path 2968" d="M221.809.548a4.6,4.6,0,1,1-4.582,4.583A4.582,4.582,0,0,1,221.809.548Z" transform="translate(-198.819)" fill="#fff" fill-rule="evenodd"/>
    <path id="Path_2969" data-name="Path 2969" d="M254.746.548a4.6,4.6,0,1,1-4.582,4.583A4.582,4.582,0,0,1,254.746.548Z" transform="translate(-229.049)" fill="#bee9ec" fill-rule="evenodd"/>
    <text id="Temp_Connect" data-name="Temp Connect" transform="translate(59.601 22.727)" fill="#fff" font-size="13" font-family="SegoeUI, Segoe UI"><tspan x="0" y="0">Temp Connect</tspan></text>
  </g>
</svg>
