<svg id="Component_206_1" data-name="Component 206 – 1" xmlns="http://www.w3.org/2000/svg" width="23" height="22" viewBox="0 0 23 22">
  <rect id="Rectangle_1563" data-name="Rectangle 1563" width="23" height="22" rx="5" fill="#443c92"/>
  <g id="house-outline" transform="translate(4.915 4.891)">
    <path id="Path" d="M91.672,563.033a.361.361,0,0,0-.4.319v4.354H88.428v-1.778a.361.361,0,0,0-.386-.313H85.986a.374.374,0,0,0-.408.313v1.778H82.742V563.5a.362.362,0,0,0-.4-.308.356.356,0,0,0-.386.308v4.528a.357.357,0,0,0,.386.308h3.645a.356.356,0,0,0,.386-.308v-1.778h1.268v1.778a.363.363,0,0,0,.4.308h3.631a.356.356,0,0,0,.386-.308v-4.672A.356.356,0,0,0,91.672,563.033Z" transform="translate(-80.425 -556.114)" fill="#fff"/>
    <path id="Path-2" data-name="Path" d="M89.135,548.8l-3-2.524v-1.721a.354.354,0,0,0-.386-.318.343.343,0,0,0-.366.318v1.09l-2.471-2.086a.4.4,0,0,0-.255-.1.411.411,0,0,0-.269.1l-6.2,5.206a.268.268,0,0,0,0,.44.4.4,0,0,0,.525,0l5.948-4.98,5.935,5.027a.408.408,0,0,0,.269.082.468.468,0,0,0,.269-.082A.292.292,0,0,0,89.135,548.8Z" transform="translate(-76.074 -543.464)" fill="#fff"/>
  </g>
</svg>
