<svg id="Component_210_1" data-name="Component 210 – 1" xmlns="http://www.w3.org/2000/svg" width="23" height="22" viewBox="0 0 23 22">
  <rect id="Rectangle_1566" data-name="Rectangle 1566" width="23" height="22" rx="5" fill="#9d3a97"/>
  <path id="Card" d="M5.406,3A1.408,1.408,0,0,0,4.061,4H3.486a1.479,1.479,0,0,0-.725.188,1.322,1.322,0,0,0-.187.123L0,6.361V7.643l3.244-2.58A.483.483,0,0,1,3.486,5H4V8.666l-.934.369.367.93L8.311,8.037h0a.5.5,0,0,1,.52.834l-1,.727,0,0A11.046,11.046,0,0,1,5.406,11a3.887,3.887,0,0,1-2.832.668h-3v1h3c1.125,0,2.5.2,3.578-1,.635-.715,1.17-.359,1.527-.664h5.914A1.4,1.4,0,0,0,15,9.625V4.375A1.4,1.4,0,0,0,13.594,3Zm0,1h8.188A.385.385,0,0,1,14,4.375V5H5V4.375A.385.385,0,0,1,5.406,4ZM5,6h9V9.625a.385.385,0,0,1-.406.375H8.977l.5-.359.02-.016A1.5,1.5,0,0,0,7.938,7.109L5,8.271Z" transform="translate(4 3)" fill="#fff"/>
</svg>
