<svg id="icons_ic_open_in_new-default" data-name="icons/ic/open_in_new-default" xmlns="http://www.w3.org/2000/svg" xmlns:xlink="http://www.w3.org/1999/xlink" width="16.667" height="16.667" viewBox="0 0 16.667 16.667">
  <defs>
    <clipPath id="clip-path">
      <path id="external-link" d="M2.5,16.667a2.456,2.456,0,0,1-2.5-2.5V5A2.455,2.455,0,0,1,2.5,2.5h5a.787.787,0,0,1,.833.833.787.787,0,0,1-.833.833h-5A.787.787,0,0,0,1.667,5v9.167A.787.787,0,0,0,2.5,15h9.167a.787.787,0,0,0,.833-.833v-5a.833.833,0,0,1,1.667,0v5a2.456,2.456,0,0,1-2.5,2.5Zm3.583-6.084a.806.806,0,0,1,0-1.166l7.75-7.75h-3A.787.787,0,0,1,10,.833.787.787,0,0,1,10.833,0h5a.5.5,0,0,1,.333.084A1,1,0,0,1,16.583.5a.5.5,0,0,1,.084.333v5a.833.833,0,1,1-1.667,0v-3l-7.75,7.75a.806.806,0,0,1-1.167,0Z" transform="translate(3.667 3.667)" fill="none"/>
    </clipPath>
  </defs>
  <g id="Group_162" data-name="Group 162" transform="translate(-3.667 -3.667)">
    <path id="external-link-2" data-name="external-link" d="M2.5,16.667a2.456,2.456,0,0,1-2.5-2.5V5A2.455,2.455,0,0,1,2.5,2.5h5a.787.787,0,0,1,.833.833.787.787,0,0,1-.833.833h-5A.787.787,0,0,0,1.667,5v9.167A.787.787,0,0,0,2.5,15h9.167a.787.787,0,0,0,.833-.833v-5a.833.833,0,0,1,1.667,0v5a2.456,2.456,0,0,1-2.5,2.5Zm3.583-6.084a.806.806,0,0,1,0-1.166l7.75-7.75h-3A.787.787,0,0,1,10,.833.787.787,0,0,1,10.833,0h5a.5.5,0,0,1,.333.084A1,1,0,0,1,16.583.5a.5.5,0,0,1,.084.333v5a.833.833,0,1,1-1.667,0v-3l-7.75,7.75a.806.806,0,0,1-1.167,0Z" transform="translate(3.667 3.667)" fill="none"/>
    <g id="Mask_Group_162" data-name="Mask Group 162" clip-path="url(#clip-path)">
      <g id="_color" data-name="🎨 color">
        <rect id="Select_color" data-name="Select color" width="24.24" height="24.24" fill="#546e7a"/>
      </g>
    </g>
  </g>
</svg>
