<svg id="Component_211_1" data-name="Component 211 – 1" xmlns="http://www.w3.org/2000/svg" width="23" height="22" viewBox="0 0 23 22">
  <rect id="Rectangle_1567" data-name="Rectangle 1567" width="23" height="22" rx="5" fill="#2b47aa"/>
  <path id="Path_2974" data-name="Path 2974" d="M6.707-.015c1.1-.031,1.537.526,2.215.9.629.348,1.218.615,1.839.976.119.069.252.232.375.3A9.242,9.242,0,0,1,13.54,3.7l-.038.45-.488.413c-.749.421-1.458.788-2.215,1.2a9.575,9.575,0,0,1-1.727.976c-.823.252-1.895-.636-2.328-.9-.6-.364-1.189-.637-1.8-.976-.343-.19-.7-.485-1.051-.676-.187-.1-.362-.216-.526-.3h-.15a6.657,6.657,0,0,0-1.239-.751c-.458-.167-.873.143-1.164.188V3.251C2.177,2.546,3.53,1.754,4.83.961c.3-.183.6-.267.9-.45.106-.065.23-.206.338-.263C6.269.142,6.565.145,6.707-.015ZM.363,3.964a2.772,2.772,0,0,1,1.577.751l.338.113c.509.29,1.042.668,1.539.976l.225.038c.1.058.2.207.3.263a2.427,2.427,0,0,1,.676.413,3.236,3.236,0,0,1,.375.938v7.02h.075c.063.13.005.234.075.338.106.158.3.17.375.375H5.881a3.9,3.9,0,0,0-.751-.413c-.149-.093-.325-.29-.488-.375h-.15c-.907-.634-1.937-1.23-2.891-1.8-.51-.306-1.135-.5-1.427-1.014a3.373,3.373,0,0,1-.188-1.539V4.415C.057,4.2.237,4.113.363,3.964ZM13.8,5.353c.146.139.075,1.149.075,1.464V11.1c-.146.155-.145.414-.263.6l-.263.188c-.038.047-.024.12-.075.15-1.251.731-2.468,1.418-3.754,2.1-.075.04-.151.183-.225.225-.188.109-.376.121-.563.225-.493.274-.821.741-1.577.751-.061-.169-.241-.229-.3-.375V10.2c.09-.081.024-.089.075-.225a1.739,1.739,0,0,1,.488-.638c1.07-.671,2.171-1.273,3.3-1.877.075-.04.151-.184.225-.225.2-.11.372-.12.563-.225.123-.068.255-.238.375-.3C12.509,6.386,13.529,5.99,13.8,5.353Z" transform="translate(4.559 3.016)" fill="#001971" fill-rule="evenodd"/>
  <path id="Path_2974-2" data-name="Path 2974" d="M.813,4.415V4.34C2.177,3.635,1.1,4.371.813,4.415Zm-.45.638A2.772,2.772,0,0,1,1.94,5.8l.338.113c.509.29,1.042.668,1.539.976l.225.038c.1.058.2.207.3.263a2.427,2.427,0,0,1,.676.413,3.236,3.236,0,0,1,.375.938v7.02h.075c.063.13.005.234.075.338.106.158.3.17.375.375H5.881a3.9,3.9,0,0,0-.751-.413c-.149-.093-.325-.29-.488-.375h-.15c-.907-.634-1.937-1.23-2.891-1.8-.51-.306-1.135-.5-1.427-1.014a3.373,3.373,0,0,1-.188-1.539V5.5C.057,5.291.237,5.2.363,5.053Z" transform="translate(4.559 1.927)" fill="#eab254" fill-rule="evenodd"/>
  <path id="Path_2984" data-name="Path 2984" d="M16.328,7.327c.146.139.075,1.149.075,1.464v4.28c-.146.155-.145.414-.263.6l-.263.188c-.038.047-.024.12-.075.15-1.251.731-2.468,1.418-3.754,2.1-.075.04-.151.183-.225.225-.188.109-.376.121-.563.225-.493.274-.821.741-1.577.751-.061-.169-.241-.229-.3-.375V12.17c.09-.081.024-.089.075-.225a1.739,1.739,0,0,1,.488-.638c1.07-.671,2.171-1.273,3.3-1.877.075-.04.151-.184.225-.225.2-.11.372-.12.563-.225.123-.068.255-.238.375-.3C15.035,8.36,16.055,7.964,16.328,7.327Z" transform="translate(2.033 1.042)" fill="#8eb0da" fill-rule="evenodd"/>
</svg>
