<svg id="Component_212_1" data-name="Component 212 – 1" xmlns="http://www.w3.org/2000/svg" width="23" height="22" viewBox="0 0 23 22">
  <rect id="Rectangle_1568" data-name="Rectangle 1568" width="23" height="22" rx="5" fill="#be7b53"/>
  <path id="Path_2975" data-name="Path 2975" d="M3.5,5.558H4.725a2.262,2.262,0,0,1,.578.017c-.181.319-.437.6-.646.9L3.365,8.312c-.172.245-.347.487-.51.731-.059.088-.109.242-.221.272a3.5,3.5,0,0,0-.323-.442L1.87,8.244C1.463,7.667,1.086,7.088.68,6.51.461,6.2.21,5.895,0,5.575a2.531,2.531,0,0,1,.646-.017h1.36l.017-.051a3.35,3.35,0,0,0,.187-.595,5.859,5.859,0,0,1,.408-.884A7.433,7.433,0,0,1,6.068.9,10.052,10.052,0,0,1,7.547.459c.133-.035.22,0,.357-.034A4.077,4.077,0,0,1,9.416.391c.168.04.3-.006.459.034.354.088.719.121,1.054.238a7.716,7.716,0,0,1,1.887.918c.19.133.361.3.544.442a4.54,4.54,0,0,1,.918.935c.1.131.288.26.323.442-.276.161-.536.373-.8.561-.1.074-.2.209-.34.238a6.723,6.723,0,0,0-.476-.578,5.389,5.389,0,0,0-2.652-1.666c-.278-.085-.578-.1-.867-.17H9.246a3.076,3.076,0,0,0-1.173.034,8.16,8.16,0,0,0-.884.17,7.528,7.528,0,0,0-1.411.646c-.138.086-.262.211-.391.306a3.768,3.768,0,0,0-.8.748c-.088.117-.22.22-.306.34a7.069,7.069,0,0,0-.578,1.02A1.445,1.445,0,0,0,3.5,5.558ZM9.348,3.315v.816a.225.225,0,0,0,.136.034c.071.049.181.039.272.068a2.446,2.446,0,0,1,.493.2,2.026,2.026,0,0,1,.969,1.734A.77.77,0,0,1,10.9,6.2a3.143,3.143,0,0,1-.731.068,1.085,1.085,0,0,0-.935-1.156h-.17a1.423,1.423,0,0,0-1.377.374A.593.593,0,0,0,7.547,6c.107.4.482.452.867.578a10.359,10.359,0,0,1,2.04.612,1.869,1.869,0,0,1,.833.9,1.9,1.9,0,0,1-.578,2.057,3.066,3.066,0,0,1-.782.408c-.148.053-.441.041-.561.119a3.4,3.4,0,0,0-.017.8H8.295a2.915,2.915,0,0,1-.017-.765c.02-.036.008-.038,0-.085a1.76,1.76,0,0,1-.544-.136A2.069,2.069,0,0,1,6.255,8.363a.84.84,0,0,1,.238-.017,2.838,2.838,0,0,1,.782-.068A1.347,1.347,0,0,0,8.295,9.6a5.011,5.011,0,0,0,.629.068,1.444,1.444,0,0,0,.442-.034c.5-.124.839-.245.969-.731a.638.638,0,0,0-.34-.7,17.751,17.751,0,0,0-2.4-.748A1.661,1.661,0,0,1,6.561,5.405a2.018,2.018,0,0,1,.272-.527,2.022,2.022,0,0,1,1-.646c.145-.048.306-.049.442-.1l.017-.051a3.12,3.12,0,0,1-.017-.748A5.355,5.355,0,0,1,9.348,3.315ZM14.142,9.23H12.357L12.34,9.2a.97.97,0,0,0,.153-.221l.442-.629c.439-.624.9-1.246,1.343-1.87.172-.245.344-.488.51-.731.059-.086.11-.242.221-.272.214.379.517.719.765,1.071.417.592.822,1.185,1.241,1.768.167.233.332.468.493.7.028.041.122.2.119.2a1.539,1.539,0,0,1-.544.017H15.637l-.017.051a3.91,3.91,0,0,0-.187.595,7.5,7.5,0,0,1-.408.884,7.533,7.533,0,0,1-3.076,2.957,9.252,9.252,0,0,1-1.853.612c-.133.035-.22,0-.357.034a4.077,4.077,0,0,1-1.513.034c-.172-.041-.31.009-.476-.034-.345-.089-.707-.123-1.037-.238a7.721,7.721,0,0,1-1.887-.918c-.19-.133-.361-.3-.544-.442a4.586,4.586,0,0,1-.918-.935c-.1-.132-.288-.257-.323-.442.276-.161.536-.373.8-.561.1-.074.2-.209.34-.238a6.683,6.683,0,0,0,.476.578,5.384,5.384,0,0,0,2.652,1.666c.278.085.578.1.867.17H8.4a3.076,3.076,0,0,0,1.173-.034,8.16,8.16,0,0,0,.884-.17,6.727,6.727,0,0,0,1.241-.544c.227-.141.436-.321.646-.476a3.452,3.452,0,0,0,.714-.68c.1-.134.242-.252.34-.391a7.071,7.071,0,0,0,.544-.969A1.511,1.511,0,0,0,14.142,9.23Z" transform="translate(2.688 3.606)" fill="#fff" fill-rule="evenodd"/>
</svg>
