<svg id="Component_209_1" data-name="Component 209 – 1" xmlns="http://www.w3.org/2000/svg" width="23" height="22" viewBox="0 0 23 22">
  <rect id="Rectangle_1565" data-name="Rectangle 1565" width="23" height="22" rx="5" fill="#64c2c4"/>
  <path id="new_vector_shape_done" d="M3.22,13a.488.488,0,0,1-.247-.072c-.2-.115-.2-.407-.2-.716v0q0-.032,0-.064V10.223l-.14,0-.222,0a2.423,2.423,0,0,1-.664-.069A2.341,2.341,0,0,1,.072,8.512,3.553,3.553,0,0,1,0,7.52c0-.093,0-.188,0-.279V2.857c0-.082,0-.168,0-.25a2.883,2.883,0,0,1,.069-.891A2.378,2.378,0,0,1,1.588.12,3.235,3.235,0,0,1,2.62,0c.189,0,.384.006.572.011h0c.186.005.361.011.529.011h6.289a4.292,4.292,0,0,1,1.633.2,2.354,2.354,0,0,1,1.271,1.5,3.686,3.686,0,0,1,.072,1.114c0,.13-.007.251-.007.369V6.068c0,.195,0,.394.009.606a5.392,5.392,0,0,1-.237,2.279,2.379,2.379,0,0,1-1.516,1.206,3.013,3.013,0,0,1-.816.083c-.154,0-.313,0-.466-.009h0c-.155,0-.3-.009-.443-.009H6.2l-2.282,2.3c-.026.026-.054.056-.084.089C3.682,12.775,3.474,13,3.22,13Zm-.08-3.7c.21,0,.392.013.5.179a.77.77,0,0,1,.063.412c0,.063,0,.128,0,.191,0,.089,0,.188,0,.293s-.006.239,0,.359c.005.06.011.119.016.179a1.269,1.269,0,0,0,0,.489H3.74V11.38L5.272,9.865c.041-.041.087-.093.136-.148a1.379,1.379,0,0,1,.5-.422.285.285,0,0,1,.082-.012.553.553,0,0,1,.066.005.778.778,0,0,0,.1.007l.206-.006.063,0,.269-.008A1.666,1.666,0,0,0,7,9.308a.785.785,0,0,0,.161-.014.442.442,0,0,1,.1-.009c.031,0,.063,0,.1,0s.067,0,.1,0h.7c.133,0,.269,0,.4-.008h0c.129,0,.263-.007.392-.007.146,0,.27,0,.379.015l.232-.006.069,0,.3-.008a2,2,0,0,0,.271.018,1.059,1.059,0,0,0,.217-.018.193.193,0,0,1,.042,0,.605.605,0,0,1,.123.017l.014,0a.338.338,0,0,0,.064,0,1.877,1.877,0,0,0,.392-.054,1.471,1.471,0,0,0,.815-.619,2.307,2.307,0,0,0,.179-1.174V3.014c0-.812,0-1.4-.473-1.754A1.822,1.822,0,0,0,11.107,1a1.491,1.491,0,0,0-.459-.053l-.179,0h0l-.172,0H2.142a.665.665,0,0,1-.221.062.785.785,0,0,0-.2.052,1.484,1.484,0,0,0-.668.668A3.327,3.327,0,0,0,.927,3.081c0,.145.009.282.009.411V6.931c0,.112,0,.217,0,.32a2.359,2.359,0,0,0,.3,1.538,1.432,1.432,0,0,0,.7.456.992.992,0,0,0,.2.03,1.255,1.255,0,0,1,.158.019.437.437,0,0,0,.09.008A1.152,1.152,0,0,0,2.6,9.278l.122.008.028,0,.094.006.122,0h.175Zm.568-2.328a.547.547,0,0,1-.23-.036.493.493,0,0,1-.215-.312.475.475,0,0,1,.052-.388.375.375,0,0,1,.155-.117.682.682,0,0,0,.106-.063H8.352c.06,0,.15,0,.244-.006h0c.136,0,.289-.009.436-.009a1.365,1.365,0,0,1,.476.047.447.447,0,0,1,.212.326.487.487,0,0,1,.016.2.509.509,0,0,1-.228.326.553.553,0,0,1-.231.036l-.1,0-.094,0H3.9l-.093,0ZM9.185,4.2l-.134,0-.128,0h-5.3a.433.433,0,0,1-.359-.375.419.419,0,0,1,.016-.277.325.325,0,0,1,.157-.193.753.753,0,0,0,.088-.068.134.134,0,0,0,.081-.016H8.972c.04,0,.086,0,.129,0s.1,0,.146,0a.6.6,0,0,1,.2.025.427.427,0,0,1,.2.17,1.014,1.014,0,0,0,.075.091c.01.284,0,.527-.245.619A.881.881,0,0,1,9.185,4.2Z" transform="translate(5 5)" fill="#fff"/>
</svg>
